<svg role="img" viewBox="0 0 24 24" xmlns="http://www.w3.org/2000/svg" fill="#20BEFF"><title>Kaggle</title><path d="M18.825 23.859c-.022.092-.117.141-.281.141h-3.139c-.187 0-.351-.082-.492-.248l-5.178-6.589-1.448 1.374v5.111c0 .235-.117.352-.351.352H5.505c-.234 0-.351-.117-.351-.352V.141c0-.234.117-.351.351-.351h2.431c.234 0 .351.117.351.351v15.325l5.539-5.344c.142-.14.305-.211.516-.211h3.35c.187 0 .28.094.28.281 0 .047-.022.117-.07.211L11.53 15.655l7.202 7.971c.071.07.117.141.093.234z"/></svg>
