<svg xmlns="http://www.w3.org/2000/svg" width="64" height="64" viewBox="0 0 64 64" role="img" aria-label="Python">
  <rect width="64" height="64" rx="14" fill="#1c2d4a"/>
  <path d="M32 10c-8 0-10 4-10 9v6h12v2H16c-6 0-10 4-10 10s4 10 10 10h5v-7c0-6 5-10 11-10h12c5 0 9-4 9-9V19c0-6-4-9-10-9H32z" fill="#3776AB"/>
  <circle cx="28" cy="17" r="2" fill="#fff"/>
  <path d="M32 54c8 0 10-4 10-9v-6H30v-2h18c6 0 10-4 10-10s-4-10-10-10h-5v7c0 6-5 10-11 10H20c-5 0-9 4-9 9v2c0 6 4 9 10 9h11z" fill="#FFD43B"/>
  <circle cx="36" cy="47" r="2" fill="#fff"/>
</svg>
